<?xml version="1.0" standalone="no"?>
<!DOCTYPE svg PUBLIC "-//W3C//DTD SVG 20010904//EN"
 "http://www.w3.org/TR/2001/REC-SVG-20010904/DTD/svg10.dtd">
<svg version="1.0" xmlns="http://www.w3.org/2000/svg"
 width="126.000000pt" height="126.000000pt" viewBox="0 0 126.000000 126.000000"
 preserveAspectRatio="xMidYMid meet">
<metadata>
Created by potrace 1.11, written by Peter Selinger 2001-2013
</metadata>
<g transform="translate(0.000000,126.000000) scale(0.100000,-0.100000)"
fill="#000000" stroke="none">
<path d="M532 1222 c4 -29 2 -31 -18 -26 -25 7 -28 -13 -5 -40 20 -24 45 -21
38 6 -4 12 -1 28 5 35 7 9 7 13 0 13 -6 0 -9 6 -6 14 3 8 0 17 -7 21 -8 6 -10
-1 -7 -23z"/>
<path d="M588 1233 c-15 -17 -15 -20 3 -42 20 -24 27 -111 9 -111 -12 0 -31
35 -23 44 3 3 1 6 -5 6 -17 0 -15 -14 8 -43 11 -14 20 -31 20 -38 0 -7 -6 -5
-15 7 -14 19 -14 18 -15 -3 0 -14 6 -23 15 -23 9 0 15 -10 16 -27 4 -90 1
-125 -11 -118 -5 3 -10 -3 -10 -14 0 -12 6 -21 14 -21 8 0 16 -7 20 -15 8 -21
-4 -18 -38 9 -16 13 -26 28 -22 34 3 6 -7 9 -27 7 -18 -2 -39 4 -49 13 -22 19
-24 44 -3 36 10 -4 15 0 15 15 0 12 -4 21 -10 21 -5 0 -10 -4 -10 -10 0 -5 -4
-10 -10 -10 -14 0 -12 40 3 70 7 14 19 25 27 25 20 0 49 28 39 39 -10 12 -31
-3 -23 -17 4 -7 4 -9 -1 -5 -4 4 -17 2 -28 -4 -17 -9 -19 -8 -14 7 4 9 7 18 7
21 0 2 7 1 15 -2 10 -4 15 0 15 11 0 11 -5 15 -14 12 -10 -4 -13 -1 -10 8 6
14 -14 60 -23 52 -3 -3 0 -13 5 -23 12 -21 -14 -104 -32 -104 -7 0 -21 9 -30
19 -17 18 -17 19 1 24 10 3 1 4 -19 2 -21 -2 -42 -6 -48 -10 -5 -3 -10 1 -10
9 0 20 -14 20 -33 1 -13 -13 -16 -13 -27 0 -18 22 -32 18 -28 -7 3 -21 9 -23
58 -23 30 0 63 3 72 8 20 9 38 -17 31 -44 -3 -11 0 -19 6 -19 6 0 10 6 8 13
-1 6 5 12 13 12 17 0 16 -48 0 -53 -14 -5 -12 -23 1 -19 6 1 14 -4 16 -10 3
-8 -4 -13 -17 -13 -19 0 -20 -2 -10 -15 9 -11 16 -12 25 -5 9 8 14 6 19 -6 5
-14 0 -15 -41 -10 -45 5 -66 20 -60 41 2 6 8 10 13 10 14 0 34 15 34 26 0 16
-18 10 -23 -8 -3 -16 -5 -16 -11 2 -19 53 -38 66 -44 31 -2 -11 4 -26 14 -33
16 -11 16 -13 1 -13 -27 0 -71 44 -64 64 4 10 12 14 19 10 10 -5 10 -4 1 6
-19 21 -33 1 -31 -45 1 -24 6 -41 11 -38 10 6 67 -17 67 -27 0 -4 -7 -10 -15
-14 -8 -3 -15 -11 -15 -17 0 -8 7 -6 18 4 16 14 20 15 33 2 8 -8 29 -15 47
-17 35 -3 49 -12 32 -23 -5 -3 -10 -11 -10 -16 0 -6 10 -3 22 5 50 35 102 12
158 -69 20 -28 30 -56 30 -79 0 -44 -19 -47 -43 -7 -18 30 -9 49 16 35 9 -5 9
-4 0 6 -16 17 -44 -4 -36 -27 5 -13 2 -15 -16 -10 -16 4 -21 2 -18 -8 3 -7 0
-18 -6 -24 -8 -8 -8 -11 0 -11 6 0 13 4 15 9 2 4 14 12 28 16 20 6 23 5 13 -6
-19 -20 -16 -27 11 -22 26 5 46 -18 41 -49 -2 -9 -5 -34 -8 -55 -13 -87 -49
-130 -81 -94 -21 23 -20 47 2 60 15 9 15 12 2 22 -11 8 -12 12 -2 16 6 2 12
12 12 21 -1 15 -3 14 -16 -3 -8 -11 -12 -25 -10 -31 3 -7 -2 -18 -10 -25 -13
-11 -15 -8 -12 17 2 16 8 32 13 36 6 4 2 8 -7 8 -10 0 -18 6 -18 13 0 6 -3 23
-7 36 -5 20 -3 23 10 18 14 -5 15 -3 5 13 -12 19 -13 19 -23 0 -11 -20 -12
-19 -39 9 -16 16 -48 42 -72 57 -24 16 -44 34 -44 42 0 8 5 10 13 6 6 -4 4 2
-6 12 -15 16 -21 17 -48 7 -28 -11 -31 -10 -49 19 -23 38 -18 49 20 44 38 -4
64 12 33 20 -13 4 -23 13 -23 21 0 8 -5 11 -10 8 -6 -4 -8 -16 -5 -28 5 -16 4
-18 -3 -8 -8 11 -13 10 -28 -8 -23 -26 -65 -27 -87 -3 -22 24 -21 32 1 32 14
0 14 2 3 9 -8 5 -11 15 -8 23 3 8 1 21 -4 29 -8 12 -10 12 -19 -1 -13 -20 -13
-30 1 -30 6 0 8 -11 4 -28 -4 -20 -1 -33 10 -42 22 -18 19 -35 -10 -48 -15 -7
-25 -20 -25 -32 0 -25 12 -25 35 0 10 11 15 20 10 20 -4 0 -2 7 5 15 21 26 69
18 101 -16 29 -31 36 -49 20 -49 -10 0 -24 -31 -16 -38 2 -3 11 1 20 8 17 14
21 0 4 -17 -6 -6 -8 -16 -4 -22 11 -18 89 -53 93 -41 2 5 8 10 13 10 6 0 8 -4
5 -8 -3 -5 1 -9 7 -9 7 0 14 9 14 20 1 12 -3 17 -13 13 -8 -3 -14 -1 -14 5 0
14 53 7 58 -8 2 -7 -9 -26 -25 -42 -23 -23 -36 -28 -62 -25 -41 5 -57 14 -41
24 9 5 9 9 1 14 -6 4 -11 2 -11 -3 0 -16 -14 -13 -37 9 -14 13 -30 17 -48 14
-24 -4 -27 -2 -22 16 3 13 -1 24 -14 30 -15 8 -19 7 -19 -4 0 -8 4 -17 10 -21
5 -3 7 -12 3 -20 -3 -8 0 -15 7 -15 6 0 9 -4 5 -9 -3 -5 0 -13 6 -17 7 -4 9
-3 5 4 -3 6 3 13 13 17 22 7 50 -5 69 -28 10 -12 5 -16 -29 -21 -23 -4 -51
-13 -62 -21 -29 -20 -50 -19 -70 3 -21 23 -22 46 -3 39 11 -4 13 -1 9 10 -5
14 -9 13 -24 -5 -9 -12 -22 -22 -28 -22 -15 0 -14 -20 2 -21 6 -1 15 -1 20 0
4 1 5 -11 1 -26 -6 -25 -5 -26 7 -11 10 12 18 15 29 8 12 -7 12 -12 -4 -29
-24 -27 -71 -29 -62 -3 4 9 -5 4 -19 -12 -14 -16 -22 -32 -19 -35 3 -3 12 2
19 12 9 12 15 14 20 7 9 -14 44 -3 73 23 19 18 22 18 22 4 0 -9 -3 -17 -8 -17
-15 0 -35 -61 -24 -72 8 -8 9 -5 5 11 -8 31 6 26 62 -20 64 -53 71 -65 49 -90
-16 -18 -16 -19 6 -19 15 0 20 4 17 15 -4 8 -2 17 4 20 5 4 7 11 4 16 -4 5 4
9 17 9 20 -1 21 -2 5 -11 -9 -5 -17 -17 -17 -26 0 -15 2 -14 14 2 13 17 14 17
23 1 9 -16 11 -16 16 -2 4 9 2 16 -4 16 -14 0 -2 18 19 29 15 8 18 5 17 -17 0
-15 -7 -32 -15 -39 -8 -6 -12 -14 -9 -18 11 -10 37 24 33 42 -7 25 16 52 52
62 47 13 57 2 39 -42 -17 -42 -28 -49 -19 -12 7 29 -1 32 -24 9 -14 -15 -14
-17 2 -26 14 -8 15 -12 4 -26 -11 -13 -10 -15 5 -9 11 4 20 1 23 -8 7 -17 34
-20 34 -4 0 6 -9 13 -20 16 -25 7 -25 9 5 49 14 18 25 37 25 43 0 14 34 31 46
23 18 -13 44 -61 35 -66 -5 -3 -20 3 -32 14 -19 16 -21 21 -10 29 8 5 9 11 3
15 -11 7 -25 -21 -17 -35 3 -4 -6 -11 -20 -15 -13 -3 -22 -10 -19 -16 3 -5 16
-2 30 7 23 15 24 14 24 -4 0 -13 -5 -18 -14 -15 -8 3 -17 1 -21 -5 -3 -7 2
-11 14 -11 12 0 21 -7 21 -15 0 -8 4 -15 8 -15 5 0 9 7 9 15 0 8 -4 15 -9 15
-5 0 -6 5 -3 10 11 17 45 11 45 -7 1 -19 30 -64 30 -46 0 6 7 14 15 17 13 5
12 1 -2 -18 l-18 -24 -12 21 c-11 20 -12 19 -14 -15 -2 -49 -1 -45 -22 -98
-11 -29 -30 -54 -52 -69 -42 -28 -44 -39 -8 -35 15 1 33 -2 40 -8 8 -7 23 -6
46 1 19 7 62 10 96 8 33 -2 61 -2 61 -1 0 2 -9 20 -20 41 -10 21 -25 62 -33
91 -7 29 -17 49 -22 45 -5 -5 -4 -1 2 7 7 9 14 38 16 64 5 60 22 71 67 48 44
-22 53 -46 14 -36 -19 5 -25 4 -20 -5 9 -14 39 -14 54 1 9 9 16 8 29 -4 21
-18 43 -13 43 10 -1 15 -2 15 -11 -1 -9 -16 -14 -14 -57 21 -26 22 -53 37 -59
35 -28 -10 -11 7 37 36 28 17 59 31 69 31 21 0 56 -35 47 -48 -8 -13 32 -52
54 -52 10 0 20 6 23 13 3 9 7 9 17 0 20 -18 42 -5 29 18 -8 15 -14 17 -29 9
-18 -10 -24 -6 -21 12 2 15 -19 58 -29 58 -15 0 -12 -16 6 -35 28 -28 9 -26
-29 2 -40 31 -44 38 -23 46 10 4 13 1 9 -9 -3 -7 0 -14 6 -14 6 0 11 9 11 19
0 25 26 30 73 15 20 -7 44 -11 51 -8 8 3 17 1 21 -5 3 -6 -1 -14 -9 -17 -9 -3
-16 -15 -16 -26 0 -15 4 -17 17 -9 11 6 24 6 35 0 24 -13 24 8 1 34 -17 18
-17 19 2 33 25 18 52 18 63 -1 7 -14 11 -13 28 6 19 22 19 22 -3 15 -25 -8
-31 5 -10 22 23 19 52 18 50 -2 -1 -17 0 -17 15 -2 15 15 15 18 2 26 -8 6 -25
8 -37 5 -17 -4 -20 -1 -16 14 4 16 1 19 -16 14 -23 -6 -28 -29 -9 -35 8 -3 3
-10 -12 -18 -22 -12 -24 -12 -12 2 10 13 10 17 0 20 -10 4 -10 8 1 21 7 9 10
25 6 34 -6 17 -7 17 -16 0 -6 -10 -10 -28 -9 -40 4 -40 0 -46 -31 -63 -19 -9
-28 -11 -24 -4 5 9 1 10 -16 6 -23 -7 -23 -6 -5 8 14 12 23 13 33 5 8 -8 13
-8 13 -1 0 6 3 17 6 26 4 10 1 16 -9 16 -9 0 -18 13 -22 30 -4 16 -11 30 -16
30 -5 0 -3 -15 5 -34 13 -32 13 -36 -5 -52 -10 -9 -36 -18 -56 -20 -21 -2 -48
-6 -60 -10 -14 -4 -23 -2 -23 5 0 6 -4 11 -10 11 -5 0 -7 -6 -4 -14 9 -25 -95
-47 -113 -24 -20 26 -22 47 -4 69 l18 22 5 -26 c3 -16 1 -27 -6 -27 -6 0 -5
-4 3 -9 8 -5 20 -7 28 -4 7 3 13 -2 13 -11 0 -14 4 -15 20 -6 11 6 20 18 20
27 0 12 -3 13 -14 4 -14 -12 -49 -5 -41 8 7 13 -26 53 -40 47 -9 -3 -13 7 -12
35 1 25 6 39 14 39 7 0 13 7 13 15 0 19 -19 20 -26 2 -5 -14 -38 -16 -50 -4
-13 13 -33 7 -28 -8 4 -10 15 -13 36 -10 l31 6 -6 -69 c-4 -38 -9 -77 -13 -86
-4 -11 -2 -16 7 -14 7 2 15 -7 17 -18 2 -16 -6 -25 -31 -38 -19 -9 -40 -16
-47 -16 -6 0 -9 -4 -6 -9 3 -4 -7 -6 -22 -2 -22 4 -23 6 -7 9 19 3 20 10 20
133 0 88 4 134 12 141 22 18 99 18 134 -1 36 -19 59 -61 34 -61 -8 0 -15 -4
-15 -10 0 -17 19 -11 32 9 12 19 13 19 41 -5 34 -28 74 -32 79 -7 2 10 12 18
22 18 11 0 21 6 23 13 3 7 -4 12 -16 12 -12 0 -21 -5 -21 -11 0 -5 -5 -7 -10
-4 -6 4 -10 3 -9 -2 7 -43 -19 -43 -67 -1 -32 28 -34 33 -18 39 11 4 30 8 43
8 23 1 23 0 7 -18 -16 -18 -16 -20 1 -36 19 -20 32 -3 14 18 -7 9 -5 16 9 25
13 8 21 8 26 1 9 -16 47 29 40 48 -10 25 -38 -4 -30 -31 5 -17 4 -19 -7 -8 -7
6 -21 12 -31 12 -24 0 -23 6 5 33 37 35 81 98 84 120 4 27 18 42 59 68 39 24
57 18 48 -17 -7 -26 10 -54 32 -54 20 0 17 17 -5 36 -11 10 -16 24 -14 35 3
11 0 19 -6 19 -7 0 -8 12 -4 33 6 29 5 31 -11 18 -9 -8 -15 -20 -12 -26 2 -7
-11 -20 -30 -29 -39 -18 -48 -20 -40 -7 3 5 -1 14 -10 21 -11 10 -18 10 -26 2
-9 -9 -8 -12 5 -12 22 0 21 -13 -4 -80 -30 -80 -40 -89 -54 -48 -12 36 -9 61
8 51 6 -3 7 -1 3 5 -4 7 -1 12 7 12 8 0 17 11 19 25 6 28 4 29 -23 14 -11 -6
-18 -17 -15 -24 2 -7 -2 -19 -10 -26 -8 -7 -13 -18 -10 -26 5 -13 -30 -74 -46
-81 -11 -5 -10 -32 1 -32 5 0 13 9 16 20 3 11 11 20 17 20 5 0 8 7 4 15 -3 9
0 15 9 15 25 0 17 -24 -18 -58 -35 -34 -67 -42 -67 -16 0 8 -5 12 -11 9 -6 -4
-8 -14 -5 -22 5 -11 2 -13 -10 -9 -8 3 -18 6 -20 6 -3 0 -2 6 2 13 6 10 4 10
-7 0 -18 -18 -34 -16 -19 2 7 8 10 22 6 30 -3 9 0 15 9 15 22 0 18 27 -5 33
-13 3 -18 10 -14 21 3 9 1 16 -6 16 -6 0 -10 -8 -9 -17 2 -10 -1 -28 -5 -41
-5 -14 -3 -28 4 -37 14 -17 -5 -21 -67 -16 -45 3 -58 19 -23 28 11 3 20 9 20
13 0 11 -37 23 -49 16 -4 -3 -8 4 -7 16 1 28 59 68 97 68 15 0 40 -5 54 -10
22 -8 26 -15 22 -33 -5 -19 -4 -20 6 -6 8 11 22 15 43 12 40 -6 53 13 20 28
-19 9 -29 9 -39 0 -17 -13 -40 7 -35 30 2 8 -4 13 -12 11 -11 -3 -12 0 -4 8 6
6 24 13 40 16 42 7 94 27 94 35 0 19 -24 19 -44 0 -35 -33 -39 -12 -6 33 20
26 38 41 52 41 14 0 24 7 26 19 3 14 0 17 -11 13 -12 -4 -15 2 -15 31 0 58 -1
62 -17 62 -8 0 -15 -9 -15 -20 0 -11 4 -20 9 -20 20 0 3 -59 -28 -98 -37 -47
-50 -53 -44 -19 3 14 -2 29 -11 36 -24 20 -20 67 6 85 28 20 42 20 34 1 -3 -8
-1 -15 4 -15 16 0 11 30 -5 36 -8 4 -13 9 -11 13 8 12 -10 32 -30 35 -10 2
-27 -3 -36 -11 -13 -11 -21 -12 -37 -3 -18 9 -21 8 -21 -9 0 -10 7 -21 15 -25
8 -3 15 -13 15 -21 0 -9 5 -13 10 -10 18 11 28 -5 21 -33 -7 -22 -4 -31 17
-48 30 -25 24 -53 -19 -95 -32 -31 -44 -35 -54 -19 -3 6 -14 10 -24 10 -16 0
-18 6 -14 43 7 54 10 57 33 27 10 -14 22 -21 26 -17 4 4 -2 16 -14 27 -12 12
-22 25 -22 29 0 5 -11 4 -25 -2 -14 -7 -25 -16 -25 -20 0 -5 -7 -15 -15 -23
-16 -17 -21 -39 -6 -30 25 16 28 -75 3 -98 -18 -15 -19 -15 -30 8 -29 64 -26
130 6 141 9 3 28 21 42 39 16 22 28 30 32 23 4 -7 8 0 8 16 0 24 -2 26 -19 15
-11 -7 -17 -16 -14 -21 7 -12 -47 -56 -69 -57 -10 0 -19 8 -20 18 -4 53 -3 69
9 87 8 13 9 25 3 35 -14 21 -12 30 5 30 8 0 15 7 15 15 0 8 11 17 25 21 14 3
25 9 25 13 0 14 -25 31 -46 31 -26 0 -56 -31 -36 -37 6 -3 12 -12 12 -20 0
-11 -6 -8 -19 8 -13 17 -16 28 -9 36 17 21 4 36 -14 16z m281 -142 c-8 -2 -17
-8 -20 -13 -7 -11 -49 11 -49 26 0 4 6 3 14 -3 10 -9 16 -8 26 4 10 12 16 13
27 3 13 -10 13 -13 2 -17z m-154 -179 c-5 -14 -8 -14 -15 -2 -5 8 -4 22 3 34
10 19 11 20 15 3 2 -10 1 -26 -3 -35z m35 -57 c0 -12 -19 -12 -23 0 -4 9 -1
12 9 8 7 -3 14 -7 14 -8z m-422 -117 c-2 -6 15 -20 37 -31 37 -18 38 -20 20
-33 -24 -18 -39 -18 -55 1 -7 8 -16 12 -21 9 -5 -3 -6 1 -3 9 3 8 0 18 -6 22
-8 5 -5 11 7 21 22 17 24 17 21 2z m152 -154 c20 -51 2 -73 -24 -31 -8 13 -7
20 4 27 13 8 13 10 -1 10 -9 0 -19 -7 -23 -15 -3 -8 -11 -15 -17 -15 -7 0 -2
11 11 25 30 31 38 31 50 -1z m-32 -43 c2 -7 -5 -23 -17 -35 -19 -21 -20 -24
-6 -36 8 -7 19 -9 23 -5 4 4 1 10 -5 12 -7 3 -13 9 -13 14 0 6 5 7 10 4 6 -3
10 1 10 9 0 36 37 10 60 -43 14 -30 16 -42 7 -47 -7 -4 -9 -4 -5 0 8 10 -14
36 -24 29 -5 -2 -8 -13 -8 -23 0 -16 -4 -18 -22 -11 -13 4 -28 17 -33 27 -6
10 -20 20 -33 21 -13 2 -21 -1 -17 -7 3 -6 12 -10 18 -10 7 0 21 -13 31 -28
l20 -27 -22 19 c-18 16 -22 16 -27 4 -7 -18 -35 -19 -35 -1 0 7 -4 13 -8 13
-4 0 -8 -9 -8 -19 0 -11 4 -17 8 -15 4 3 8 1 8 -5 0 -11 -32 -31 -49 -31 -6 0
-11 7 -11 15 0 8 -4 15 -10 15 -5 0 -7 -7 -4 -15 9 -22 -14 -18 -40 8 -13 12
-36 29 -52 37 -32 17 -35 38 -15 87 16 38 38 50 37 19 -1 -14 6 -22 22 -24 12
-2 22 1 22 6 0 6 -9 8 -20 5 -22 -6 -27 9 -7 25 17 15 127 25 127 12 0 -5 -9
-10 -20 -10 -11 0 -20 -4 -20 -10 0 -5 10 -9 23 -8 12 0 27 0 32 -2 25 -6 39
2 18 10 -34 14 -19 40 20 36 17 -2 33 -9 35 -15z m642 -131 c0 -5 -5 -10 -11
-10 -5 0 -7 5 -4 10 3 6 8 10 11 10 2 0 4 -4 4 -10z m-457 -34 c-10 -13 -20
-22 -22 -20 -4 4 29 44 36 44 2 0 -4 -11 -14 -24z m332 -34 c-8 -9 -34 7 -45
28 -12 22 -11 22 19 -1 17 -12 29 -25 26 -27z m-331 -136 c-3 -9 -10 -13 -15
-10 -5 3 -3 11 4 19 15 16 19 13 11 -9z m40 -85 c-6 -6 -24 19 -24 34 1 6 7 1
15 -9 8 -11 12 -22 9 -25z"/>
<path d="M327 483 c3 -7 -2 -13 -11 -13 -9 0 -16 -7 -16 -15 0 -23 14 -18 37
13 19 25 19 28 3 28 -10 0 -16 -6 -13 -13z"/>
<path d="M247 467 c-15 -12 -27 -28 -27 -34 0 -6 -5 -13 -11 -15 -7 -2 5 -4
25 -5 24 -1 36 3 33 10 -2 7 -12 11 -22 9 -10 -2 -14 1 -10 7 3 6 13 11 21 11
8 0 14 7 14 16 0 8 5 12 10 9 6 -3 10 -1 10 4 0 17 -15 13 -43 -12z"/>
<path d="M180 470 c-9 -6 -10 -10 -3 -10 6 0 15 5 18 10 8 12 4 12 -15 0z"/>
<path d="M294 419 c-8 -14 11 -33 25 -25 6 4 11 11 11 16 0 13 -29 20 -36 9z"/>
<path d="M436 1204 c-4 -9 -13 -14 -21 -10 -9 3 -15 0 -15 -9 0 -9 9 -15 23
-15 25 0 47 17 47 37 0 19 -27 16 -34 -3z"/>
<path d="M745 1190 c-8 -13 13 -40 31 -40 21 0 17 28 -5 40 -14 7 -22 7 -26 0z"/>
<path d="M667 1160 c-15 -12 -27 -27 -26 -33 0 -9 2 -9 5 -1 3 7 14 10 24 7
12 -3 22 1 26 11 12 30 -1 38 -29 16z"/>
<path d="M917 1149 c-9 -6 -17 -17 -17 -24 0 -23 28 -18 35 6 9 26 4 30 -18
18z"/>
<path d="M340 1141 c0 -21 13 -41 26 -41 19 0 18 36 -2 44 -21 8 -24 8 -24 -3z"/>
<path d="M520 1115 c-10 -13 -9 -15 9 -15 11 0 21 4 21 9 0 18 -18 21 -30 6z"/>
<path d="M705 1118 c-10 -26 2 -55 17 -40 8 8 8 18 1 34 -10 21 -12 21 -18 6z"/>
<path d="M986 1071 c-16 -17 -15 -19 4 -24 13 -3 24 1 30 13 14 26 -13 34 -34
11z"/>
<path d="M668 1067 c9 -10 6 -17 -8 -30 -11 -9 -25 -17 -30 -17 -5 0 -7 -7 -4
-15 4 -8 10 -15 15 -15 5 0 9 7 9 15 0 8 7 15 15 15 16 0 36 39 28 53 -2 4
-11 7 -20 7 -12 0 -13 -3 -5 -13z"/>
<path d="M189 1037 c-2 -14 2 -41 6 -45 1 -1 11 -4 23 -7 23 -4 37 29 18 43
-21 17 -46 22 -47 9z"/>
<path d="M765 1020 c-3 -5 4 -14 15 -20 16 -8 20 -8 20 4 0 16 -27 29 -35 16z"/>
<path d="M886 1017 c-14 -10 -16 -18 -9 -31 9 -17 11 -17 26 -1 18 17 23 45 9
45 -5 0 -16 -6 -26 -13z"/>
<path d="M1037 988 c-6 -21 7 -48 23 -48 14 0 20 31 10 51 -14 25 -26 24 -33
-3z"/>
<path d="M560 980 c0 -11 7 -20 15 -20 8 0 15 6 15 14 0 8 -7 16 -15 20 -10 4
-15 -1 -15 -14z"/>
<path d="M181 961 c-10 -7 -8 -12 9 -24 18 -12 20 -19 11 -35 -8 -15 -7 -23 3
-31 18 -15 30 2 21 30 -4 13 -2 25 5 29 8 5 7 12 -5 24 -19 18 -24 19 -44 7z"/>
<path d="M807 956 c-6 -16 2 -28 14 -20 12 7 11 34 0 34 -5 0 -11 -6 -14 -14z"/>
<path d="M940 961 c0 -5 7 -14 15 -21 13 -10 15 -9 15 9 0 12 -6 21 -15 21 -8
0 -15 -4 -15 -9z"/>
<path d="M1104 946 c-4 -11 0 -24 9 -34 15 -14 17 -14 23 2 4 11 0 24 -9 34
-15 14 -17 14 -23 -2z"/>
<path d="M516 942 c-4 -7 27 -42 38 -42 2 0 6 10 9 21 4 15 11 20 22 15 9 -3
13 -2 10 4 -9 14 -33 12 -38 -2 -3 -10 -7 -10 -19 0 -9 7 -19 9 -22 4z"/>
<path d="M1012 934 c3 -17 21 -21 26 -6 1 5 -4 12 -13 16 -11 4 -15 1 -13 -10z"/>
<path d="M744 926 c-4 -10 -2 -22 4 -28 8 -8 13 -7 18 6 4 10 2 22 -4 28 -8 8
-13 7 -18 -6z"/>
<path d="M258 923 c7 -3 16 -2 19 1 4 3 -2 6 -13 5 -11 0 -14 -3 -6 -6z"/>
<path d="M480 912 c0 -14 11 -21 26 -15 21 8 17 23 -6 23 -11 0 -20 -4 -20 -8z"/>
<path d="M655 890 c-3 -5 -1 -10 4 -10 6 0 11 5 11 10 0 6 -2 10 -4 10 -3 0
-8 -4 -11 -10z"/>
<path d="M336 871 c-15 -24 12 -106 30 -88 4 3 -1 14 -10 23 -12 12 -14 20 -7
27 14 14 14 47 2 47 -6 0 -12 -4 -15 -9z"/>
<path d="M900 870 c-12 -7 -12 -12 -2 -22 9 -9 12 -9 12 5 0 10 5 14 14 11 8
-3 17 -1 21 5 8 14 -24 14 -45 1z"/>
<path d="M79 849 c-12 -8 -11 -12 4 -24 19 -14 47 -10 47 6 0 15 -35 28 -51
18z"/>
<path d="M945 850 c-10 -17 12 -37 25 -24 8 8 6 15 -4 23 -10 9 -16 9 -21 1z"/>
<path d="M504 838 c-5 -7 -7 -24 -6 -39 2 -27 -17 -52 -36 -47 -9 3 -12 -2
-12 -17 0 -3 10 -1 21 6 17 9 23 8 30 -2 4 -7 11 -10 15 -6 4 4 3 12 -3 18
-12 12 -6 49 8 49 5 0 9 11 9 25 0 26 -14 33 -26 13z"/>
<path d="M1103 828 c2 -7 10 -13 17 -13 7 0 15 6 18 13 2 7 -5 12 -18 12 -13
0 -20 -5 -17 -12z"/>
<path d="M445 820 c-4 -6 -13 -9 -20 -6 -8 3 -19 -2 -27 -11 -11 -14 -10 -16
9 -11 13 4 26 1 30 -5 4 -6 10 -1 15 13 9 25 4 39 -7 20z"/>
<path d="M1074 798 c-4 -7 -3 -8 4 -4 8 4 12 0 12 -10 0 -13 3 -15 11 -7 12
12 4 33 -11 33 -5 0 -12 -5 -16 -12z"/>
<path d="M570 793 c0 -6 -12 -8 -26 -5 -20 3 -25 2 -19 -7 4 -7 13 -10 21 -7
7 3 17 -2 22 -10 7 -13 10 -13 20 -1 10 11 9 17 -3 27 -8 7 -15 8 -15 3z"/>
<path d="M726 792 c-4 -4 -12 -7 -17 -7 -5 0 -9 -3 -9 -7 0 -5 3 -8 6 -7 4 0
10 -5 14 -11 9 -15 30 -4 30 15 0 17 -15 27 -24 17z"/>
<path d="M1131 791 c-9 -6 -10 -11 -2 -15 6 -4 11 -4 11 0 0 4 9 -1 19 -10 13
-12 27 -16 42 -11 22 7 22 8 4 21 -11 8 -26 12 -34 9 -8 -3 -17 -1 -20 4 -4 6
-12 6 -20 2z"/>
<path d="M155 780 c3 -5 8 -10 11 -10 2 0 4 5 4 10 0 6 -5 10 -11 10 -5 0 -7
-4 -4 -10z"/>
<path d="M40 747 c0 -15 2 -27 4 -27 2 0 11 -3 20 -6 23 -9 20 19 -4 41 -20
18 -20 17 -20 -8z"/>
<path d="M377 755 c-5 -10 0 -15 14 -15 12 0 19 5 17 12 -6 18 -25 20 -31 3z"/>
<path d="M755 755 c-3 -8 -7 -22 -10 -30 -2 -8 0 -17 5 -20 10 -6 30 26 30 49
0 20 -19 21 -25 1z"/>
<path d="M1063 763 c-16 -6 -17 -33 -3 -33 11 0 26 28 19 34 -2 2 -10 1 -16
-1z"/>
<path d="M155 750 c-4 -7 -1 -19 7 -27 14 -13 16 -13 21 0 7 20 -18 43 -28 27z"/>
<path d="M215 751 c-3 -6 3 -15 14 -21 21 -11 37 2 26 20 -8 13 -32 13 -40 1z"/>
<path d="M1122 746 c1 -10 8 -17 13 -17 15 1 12 24 -3 29 -9 3 -13 -2 -10 -12z"/>
<path d="M888 743 c-15 -4 -27 -23 -14 -23 2 0 11 -3 19 -6 8 -3 17 2 20 10 7
18 -1 24 -25 19z"/>
<path d="M457 714 c-4 -4 -7 -16 -7 -26 0 -16 3 -17 21 -8 11 6 19 16 16 23
-4 14 -21 20 -30 11z"/>
<path d="M30 690 c6 -11 16 -17 25 -14 20 8 19 20 -1 28 -28 11 -35 7 -24 -14z"/>
<path d="M1105 694 c-9 -9 -14 -21 -12 -28 2 -6 -10 -19 -27 -28 -21 -12 -25
-17 -11 -15 11 1 26 6 33 10 6 5 16 5 22 2 5 -3 7 0 4 8 -3 8 2 17 10 20 17 7
21 32 7 42 -5 3 -17 -2 -26 -11z"/>
<path d="M1177 699 c-9 -6 -17 -14 -17 -19 0 -16 30 -11 37 5 8 21 1 25 -20
14z"/>
<path d="M87 686 c-3 -8 0 -21 6 -30 14 -17 72 -42 62 -26 -3 6 -12 10 -20 10
-21 0 -45 29 -39 45 4 8 4 15 1 15 -3 0 -7 -6 -10 -14z"/>
<path d="M117 693 c-10 -10 -8 -33 3 -33 5 0 14 9 20 20 8 15 8 20 -3 20 -8 0
-17 -3 -20 -7z"/>
<path d="M215 670 c-8 -13 4 -32 16 -25 12 8 12 35 0 35 -6 0 -13 -4 -16 -10z"/>
<path d="M46 641 c-10 -16 5 -41 25 -41 16 0 18 3 9 19 -13 25 -27 34 -34 22z"/>
<path d="M1158 643 c-10 -3 -18 -9 -18 -14 0 -11 49 -24 57 -15 11 11 -21 33
-39 29z"/>
<path d="M540 630 c0 -5 7 -10 16 -10 8 0 12 5 9 10 -3 6 -10 10 -16 10 -5 0
-9 -4 -9 -10z"/>
<path d="M140 604 c0 -13 29 -34 35 -24 3 5 1 10 -5 10 -6 0 -8 5 -5 10 3 6
-1 10 -9 10 -9 0 -16 -3 -16 -6z"/>
<path d="M590 576 c0 -7 7 -19 15 -26 13 -11 15 -8 15 14 0 16 -5 26 -15 26
-8 0 -15 -6 -15 -14z"/>
<path d="M728 576 c-10 -7 -18 -19 -18 -25 0 -20 22 -7 31 17 10 26 10 26 -13
8z"/>
<path d="M1217 569 c-8 -29 5 -44 28 -32 15 9 15 11 -3 33 l-19 23 -6 -24z"/>
<path d="M208 573 c7 -3 16 -2 19 1 4 3 -2 6 -13 5 -11 0 -14 -3 -6 -6z"/>
<path d="M812 563 c2 -10 12 -19 23 -21 19 -3 19 -2 3 11 -10 8 -15 17 -11 20
3 4 1 7 -6 7 -7 0 -11 -8 -9 -17z"/>
<path d="M1085 569 c-10 -15 1 -22 24 -14 12 3 19 11 16 16 -8 12 -32 11 -40
-2z"/>
<path d="M883 556 c-13 -6 -23 -14 -23 -17 0 -4 10 -7 23 -6 12 0 30 -3 40 -7
20 -10 24 13 5 32 -14 14 -15 14 -45 -2z"/>
<path d="M20 530 c12 -23 35 -22 35 1 0 8 -10 15 -23 17 -21 3 -22 1 -12 -18z"/>
<path d="M1001 533 c-6 -10 -11 -12 -11 -5 0 6 -5 12 -10 12 -6 0 -5 -8 2 -19
13 -22 23 -19 38 10 14 24 -5 26 -19 2z"/>
<path d="M590 521 c0 -6 6 -11 13 -11 8 0 7 -4 -3 -10 -9 -6 -10 -10 -3 -10
19 0 24 17 8 30 -10 9 -15 9 -15 1z"/>
<path d="M2 488 c5 -15 28 -18 29 -3 0 6 -7 12 -17 13 -10 3 -15 -1 -12 -10z"/>
<path d="M936 491 c-4 -7 -5 -15 -2 -18 9 -9 19 4 14 18 -4 11 -6 11 -12 0z"/>
<path d="M564 478 c-9 -14 -2 -16 26 -8 25 6 25 6 3 12 -13 3 -26 2 -29 -4z"/>
<path d="M690 471 c0 -5 7 -14 15 -21 12 -10 19 -10 27 -2 7 7 9 14 6 17 -9
10 -48 14 -48 6z"/>
<path d="M725 429 c-4 -6 -5 -13 -2 -16 7 -7 27 6 27 18 0 12 -17 12 -25 -2z"/>
<path d="M1195 430 c-8 -13 3 -30 21 -30 18 0 18 14 0 29 -10 8 -16 9 -21 1z"/>
<path d="M64 406 c-16 -12 -15 -13 6 -19 25 -6 40 -2 40 13 0 15 -28 19 -46 6z"/>
<path d="M993 405 c-3 -9 -3 -19 1 -22 7 -7 36 16 36 28 0 15 -30 10 -37 -6z"/>
<path d="M1160 410 c-9 -6 -10 -10 -3 -10 6 0 15 5 18 10 8 12 4 12 -15 0z"/>
<path d="M1167 376 c-6 -15 1 -26 15 -26 4 0 8 9 8 20 0 23 -15 27 -23 6z"/>
<path d="M105 369 c-4 -6 -5 -13 -2 -16 7 -7 27 6 27 18 0 12 -17 12 -25 -2z"/>
<path d="M167 373 c-13 -13 -7 -21 13 -16 11 3 17 9 14 14 -6 11 -18 12 -27 2z"/>
<path d="M450 370 c0 -5 5 -10 11 -10 5 0 7 5 4 10 -3 6 -8 10 -11 10 -2 0 -4
-4 -4 -10z"/>
<path d="M866 371 c-3 -5 1 -11 9 -15 9 -3 15 0 15 9 0 16 -16 20 -24 6z"/>
<path d="M785 361 c-3 -5 -1 -12 5 -16 12 -7 30 2 30 16 0 12 -27 12 -35 0z"/>
<path d="M1081 361 c-15 -10 -12 -43 6 -48 14 -5 28 36 16 48 -4 4 -14 4 -22
0z"/>
<path d="M194 335 c-4 -9 -2 -21 5 -28 13 -13 18 -9 23 17 4 24 -20 33 -28 11z"/>
<path d="M825 329 c-10 -15 3 -25 16 -12 7 7 7 13 1 17 -6 3 -14 1 -17 -5z"/>
<path d="M876 325 c-3 -9 0 -15 9 -15 9 0 12 6 9 15 -4 8 -7 15 -9 15 -2 0 -5
-7 -9 -15z"/>
<path d="M297 276 c-6 -15 1 -26 15 -26 11 0 10 27 -1 34 -5 3 -11 0 -14 -8z"/>
<path d="M385 280 c3 -5 8 -10 11 -10 2 0 4 5 4 10 0 6 -5 10 -11 10 -5 0 -7
-4 -4 -10z"/>
<path d="M897 283 c-12 -11 -7 -21 13 -26 11 -3 20 -2 20 3 0 12 -26 31 -33
23z"/>
</g>
</svg>
